<?xml version="1.0" encoding="iso-8859-1"?>
<!-- Generator: Adobe Illustrator 16.0.0, SVG Export Plug-In . SVG Version: 6.00 Build 0)  -->
<!DOCTYPE svg PUBLIC "-//W3C//DTD SVG 1.1//EN" "http://www.w3.org/Graphics/SVG/1.1/DTD/svg11.dtd">
<svg version="1.1" id="Capa_1" xmlns="http://www.w3.org/2000/svg" xmlns:xlink="http://www.w3.org/1999/xlink" x="0px" y="0px"
	 width="523.516px" height="523.516px" viewBox="0 0 523.516 523.516" style="enable-background:new 0 0 523.516 523.516;"
	 xml:space="preserve">
<g>
	<path d="M500.281,77.442H23.235C10.406,77.442,0,87.842,0,100.672v322.16c0,12.838,10.406,23.241,23.235,23.241h477.045
		c12.833,0,23.235-10.403,23.235-23.241v-322.16C523.516,87.842,513.114,77.442,500.281,77.442z M189.738,390.701H32.908v-15.096
		h156.824v15.096H189.738z M218.778,361.661H32.908v-36.015h185.87V361.661z M461.572,384.891c0,5.137-4.167,9.298-9.304,9.298
		H271.056c-5.134,0-9.292-4.161-9.292-9.298v-92.929c0-5.137,4.164-9.292,9.292-9.292h181.212c5.137,0,9.304,4.155,9.304,9.292
		V384.891z M477.046,233.879c0,5.133-4.161,9.292-9.286,9.292h-80.546c-5.131,0-9.292-4.164-9.292-9.292V142.49
		c0-5.131,4.167-9.292,9.292-9.292h80.552c5.131,0,9.292,4.167,9.292,9.292v91.389H477.046z M439.879,307.447v12.396
		c0,5.13-4.161,9.292-9.292,9.292H294.286c-5.131,0-9.292-4.162-9.292-9.292v-12.396c0-5.13,4.161-9.297,9.292-9.297h136.302
		C435.718,298.162,439.879,302.317,439.879,307.447z M439.879,357.79v12.389c0,5.131-4.161,9.298-9.292,9.298H294.286
		c-5.131,0-9.292-4.167-9.292-9.298V357.79c0-5.131,4.161-9.292,9.292-9.292h136.302
		C435.718,348.498,439.879,352.659,439.879,357.79z"/>
</g>
<g>
</g>
<g>
</g>
<g>
</g>
<g>
</g>
<g>
</g>
<g>
</g>
<g>
</g>
<g>
</g>
<g>
</g>
<g>
</g>
<g>
</g>
<g>
</g>
<g>
</g>
<g>
</g>
<g>
</g>
</svg>
